# xmcd
#
# Track frame offsets:
#	150
#	15231
#	27245
#	42017
#	54503
#	68192
#	80589
#	92443
#	106782
#	119551
#
# Disc length: 1824 seconds
#
# Revision: 1
# Processed by: cddbd v1.5.2PL0 Copyright (c) Steve Scherf et al.
# Submitted via: audiograbber 1.83.01
#
DISCID=70071e0a
DTITLE=George Jones - Wine Colored Roses
DYEAR=1986
DGENRE=Country
TTITLE0=Wine Colored Roses
TTITLE1=I Turn To You
TTITLE2=The Right Left Hand
TTITLE3=Don't Leave Without Taking Your Silver
TTITLE4=The Very Best Of Me
TTITLE5=Hopelessly Yours
TTITLE6=You Never Looked That Good When You Were Mine  [with Patti Page]
TTITLE7=If Only Your Eyes Could Lie
TTITLE8=Ol' Frank
TTITLE9=These Old Eyes Have Seen It All
EXTD=
EXTT0=
EXTT1=
EXTT2=
EXTT3=
EXTT4=
EXTT5=
EXTT6=
EXTT7=
EXTT8=
EXTT9=
PLAYORDER=
